<svg xmlns="http://www.w3.org/2000/svg" width="18" height="18" viewBox="0 0 18 18"><path fill="#fff" d="M9 0c2.444 0 2.751.01 3.711.054 1.462.067 2.747.425 3.779 1.456 1.03 1.032 1.39 2.316 1.456 3.779.043.96.054 1.267.054 3.711s-.01 2.751-.054 3.711c-.067 1.462-.425 2.747-1.457 3.779-1.03 1.03-2.316 1.39-3.778 1.456-.96.043-1.267.054-3.711.054s-2.751-.01-3.711-.054c-1.463-.067-2.747-.425-3.779-1.457C.48 15.46.12 14.174.054 12.711.01 11.751 0 11.444 0 9s.01-2.751.054-3.711C.121 3.826.479 2.542 1.51 1.51 2.542.48 3.826.12 5.29.054 6.249.01 6.556 0 9 0zm4.621 9a4.622 4.622 0 11-9.243 0 4.622 4.622 0 019.244 0zM12 9a3 3 0 10-6 0 3 3 0 006 0zm.725-4.804a1.08 1.08 0 112.16 0 1.08 1.08 0 01-2.16 0zM9 1.622c-2.403 0-2.688.009-3.637.052-1.024.047-1.975.252-2.706.983-.731.732-.937 1.682-.983 2.706-.043.949-.052 1.234-.052 3.637s.008 2.688.052 3.637c.046 1.024.252 1.974.983 2.706.731.731 1.682.936 2.706.983.949.043 1.234.052 3.637.052s2.688-.009 3.637-.052c1.024-.046 1.974-.252 2.706-.983.731-.731.936-1.682.983-2.706.043-.949.052-1.234.052-3.637s-.009-2.688-.052-3.637c-.046-1.024-.252-1.975-.983-2.706-.731-.731-1.682-.937-2.706-.983-.949-.043-1.234-.052-3.637-.052z"/></svg>