<svg xmlns="http://www.w3.org/2000/svg" width="122" height="46" viewBox="0 0 122 46"><path fill="#0072ce" d="M2.725 44.459c-.024.364-.53.364-.546.705 0 .016-.12.055-.183.048-1.014-.23-1.418-.674-1.529-1.664-.015-.159.135-.412-.316-.349-.214.032-.167-.332-.064-.364.507-.15.563-.673.99-.88.278-.134.064-.166-.103-.26-.903-.492-.934-1.086-.11-1.696.316-.23.348-.53.008-.658-.46-.166-.294-.499-.222-.65.11-.229.324-.356-.016-.578-.095-.063.008-.206.206-.261.665-.166.689-.571.23-1.085-.206-.262-.555-.69-.04-1.006.222-.135.206-.278.206-.444.016-.594-.238-1.165-.159-1.768.008-.078-.023-.15-.118-.213-.642-.38-.325-.697.103-.998-.61-.467-.698-1.1-.238-1.64.016-.015.055-.04.055-.047-.316-.745.357-1.363.333-2.1-.04-.697-.752-1.188-.586-1.9.047-.199-.063-.437.27-.54.166-.055.197-.198.094-.38-.174-.333-.079-.618.42-.713-.546-.309-.626-.633-.277-1.038.166-.19.174-.396 0-.563-.452-.443-.491-.823-.087-1.235.04-.04.134-.032.103-.127-.34-1.006.134-1.98.174-2.978.032-.832-.76-1.442-.547-2.266.032-.127-.079-.19-.23-.198-.158-.008-.26-.182-.19-.206.436-.166.302-.673.658-.84.65-.317.737-.61.206-1.07-.23-.197-.467-.221.04-.443.57-.245.57-1.228.119-1.68-.254-.253-.222-.554-.04-.768.245-.285.34-.49-.048-.72-.063-.032-.103-.096-.158-.143.586-.483-.515-1.022.127-1.608.483-.452-.183-1.268.34-1.838.206-.222-.142-.214-.206-.325-.166-.317-.364-.634.286-.713.126-.016.34.119.356-.159.016-.206.024-.443-.206-.475-.404-.055-.317-.293-.293-.483.032-.317.34-.206.53-.198.698.016 1.34.016 1.45-.784.04-.27.317-.159.492-.167 2.4-.103 4.793-.174 7.193-.142.855.015 1.695-.27 2.59-.048.214.056.595-.46 1.07-.348.277.063.586-.12.784.3.119.254.895.207 1.014.048.277-.38.594-.198.895-.206a43.282 43.282 0 012.266.016c.166 0 .198.008.31-.127.213-.261.554-.293.712.056.119.253.357.23.483.174 1.03-.507 2.131-.135 3.193-.246.483-.047.99.111 1.434-.237.119-.095.42-.095.626.055.277.214.538.475.831-.024.096-.166.38-.063.492.111.206.317.427.325.673.056.143-.15.325-.087.483-.095.753-.008 1.505 0 2.258-.008.15 0 .388.19.428-.143.024-.174.293-.158.364-.11.84.562 1.632-.27 2.488-.032.91.253 1.885.158 2.836.142.42-.008.895.15 1.236-.238.047-.055.3-.063.356-.015.626.57 1.22-.167 1.862-.032.72.15 1.497.127 2.25.15.253.008.586.143.697-.285.055-.206 1.33-.071 1.537.15.293.31.982.318 1.291-.015.15-.158.317-.103.475-.103.674.024 1.34-.032 2.013.095.364.071.879.27 1.235-.27.175-.26.864-.142 1.284-.047.325.071.642.103.958.087 1.941-.087 3.874.198 5.807.135.254-.008.61.143.69-.285.023-.15.206-.135.356.016.38.396.594.404.927.023.087-.103.143-.055.23-.031.578.119 1.307-.23 1.727.412.031.04.182.079.198.055.72-.697 1.648-.206 2.463-.293.579-.063 1.371.174 1.735.008.531-.238.737-.182 1.086.095.055.047.309.008.34-.048.206-.38.365-.594.563 0 .008.032.245.056.27.032.514-.768 1.37-.388 1.988-.34 2.051.166 4.103.19 6.163.285.69.031 1.378.079 2.076.071.309-.008.697.158.847-.309.032-.095.5-.261.69.143.134.285.49.3.736.118.531-.388.69-.38 1.038.175.357-.23.681-.832 1.133-.056.063.111.364.238.634.064.554-.349 1.117-.515 1.632.079.087.095.221.08.332.008.721-.468 1.838-.491 2.496-.04.198.135.277.056.475-.055.285-.159.753-.365.872.206.055.285.293.198.467.198 1.711.008 3.422.008 5.133.008.048 0 .127.015.151-.008.42-.388.919-.143 1.386-.167.19-.008.618.183.618-.293 0-.11.412-.119.555-.047.571.309 1.053.23 1.529-.143.04-.032.142-.15.293-.008.285.27.665.198.848-.119.063-.103.705-.19.744-.087.072.206.373.23.38.246.547.935.698-.024.769-.174.277-.595.832-.38 1.149-.246.34.143.68.19.887.055.974-.618 2.139-.499 3.2-.57 2.259-.158 4.5-.444 6.758-.562.119-.008.325-.04.333-.08.182-.91 1.07-.332 1.568-.562.293-.135.642-.23.935-.325.919-.293 1.941-.27 2.931-.206.27.016.103.301.182.452.103.174.341-.175.404.087.072.3-.364.19-.372.285-.04.555-.752.768-.848 1.18-.095.404-.174.983.199 1.347.451.444.364.967.213 1.363-.11.293-.047.538-.095.8-.095.546.333 1.101-.103 1.663-.079.111-.467.8.365.832.024 0 .071.214.04.31-.175.475-.215.966-.302 1.449-.126.729-.237.8.27 1.458.087.11.103.372.023.443-.364.31-.11.84-.53 1.11-.016.007-.016.031-.04.055-.333.388.539.46.277.816-.221.317-.269.602.167.8.103.047.174.182.126.198-.641.293.032.966-.49 1.283-.04.024-.04.111-.064.167.745.118.27.689.467 1.014.08.126.087.348-.19.451-.182.064-.198.254-.166.404.135.65.277 1.276.11 1.957-.047.198.199.578.286.887.238.832.024 1.64-.08 2.456-.063.506.064 1.046.16 1.56.055.286.245.54-.246.682-.159.04-.08.277-.056.428.19 1.053.586 2.147.349 3.153-.175.737.3 1.576-.412 2.25-.08.071-.143.618.19.72.309.104.245.254.3.436.128.428.056.769-.38 1.022-.19.111-.403.222 0 .293.222.04.207.15.222.286.04.411-.411.855.143 1.227.056.04.063.325-.11.332-.706.04-.54.421-.5.81.032.253.032.498-.206.775-.182.214-.19.642.19.99.373.341.444.951.23 1.355-.127.246-.198.468-.198.698.016.689-.349 1.354-.095 2.06.047.134-.642.403-.808.324-.452-.206-1.07-.055-1.149.206-.142.428-.388.365-.697.372-.776.016-1.537.008-2.313.111-.832.111-1.672-.19-2.535-.118-.507.04-1.014.015-1.418.364-.032.032-.333.277-.54-.032-.134-.206-1.512-.159-1.734.007-.618.469-.713.413-1.656.136-.206-.064-.895-.206-1.1.309-.08.198-.223.285-.452.277-.405-.016-.785.063-1.18.111-.278.04-.58.135-.856-.27-.262-.372-.888-.007-1.316.072-.514.095-.744.143-.736-.412.008-.293-.293-.309-.555-.309h-7.692c-.206 0-.507-.063-.475.254.055.475-.302.42-.626.404-3.383-.159-6.782-.15-10.164-.389-.31-.023-.713-.198-.92.301-.07.183-.704.214-.934-.023-.468-.46-.92-.365-1.41-.12-.095.048-.135.08-.246.025-.88-.444-.855-.412-1.822.023-.285.127-.792.206-1.022-.142-.206-.293-.554-.285-.697-.174-.578.467-1.244.102-1.846.23-.412.086-.206-.365-.515-.413-.404-.063-.618.262-.919.262a75.674 75.674 0 01-4.024-.024c-.301-.008-.666.024-.935-.309-.19-.246-.325.222-.578.222-.88-.016-1.775.095-2.63-.04-1.11-.167-2.21-.142-3.288-.047-.483.04-1.006.214-1.537.214-.293 0-.602.07-.76-.27-.088-.182-.397-.158-.397-.04.032.634-.53.31-.697.286-.832-.135-1.663-.095-2.495-.103-.159 0-.34-.064-.475.11-.159.207-.31.262-.389-.055-.008-.031-.198-.064-.253-.031-.832.53-1.775.095-2.654.23-.143.023-.301.015-.333-.175-.04-.318-.412-.27-.515-.19-.626.436-1.33.174-1.996.245-.277.032-.61-.087-.745.262-.016.04-.142.095-.166.08-1.014-.603-2.052.229-3.074-.064-.15-.048-.261.024-.309.198-.08.309-.245.19-.38.024-.301-.373-.357-.397-.491-.056-.127.317-.278.182-.5.159-1.314-.135-2.677-.23-3.945-.008-.91.166-1.814.261-2.677.166-1.054-.119-2.131-.198-3.137-.048-.872.134-1.72.222-2.59.214-.445-.008-.896.087-1.332-.103-.127-.055-.404-.031-.483.056-.634.634-1.45.237-2.17.285-.413.032-.848-.261-1.22.119-.08.08-.262.08-.333-.032-.19-.27-.341-.285-.523 0-.032.056-.206.095-.27.064-.831-.325-1.655.174-2.487 0-.76-.167-1.45-.484-2.321-.349-1.799.27-3.613.523-5.45.499-1.054.729-2.346.436-3.518.594-1.212.174-2.456.142-3.692.198-.325.016-1.196-.475-1.442-.713-.34-.333-.887-.348-1.323-.443-.317-.048-.42-.206-.602-.436"/><path fill="#fff" d="M39.369 32.478c.04-.015.087-.015.11-.023.056.008.135.031.151.087.008.024-.008.04-.016.063-.016.024-.016.048-.016.071-.008.048-.04.088-.087.072-.04 0-.063-.048-.087-.072a.362.362 0 00-.166-.079c-.032-.008-.056-.016-.072-.047-.008-.016 0-.024.016-.04.024-.015.064 0 .095-.008.032-.007.048-.016.072-.024m-3.098.46c0-.055.095-.127.119-.166.119-.183.245-.08.412-.103.079-.016.142-.095.198 0 .047.07.008.198-.04.252-.127.144-.356.12-.523.096-.063-.008-.174 0-.166-.079m2.194-.024c-.063.032-.15.08-.221.095-.048 0-.04-.04-.024-.071.016-.04.04-.047.079-.064h.008c.087-.04.198-.078.285-.063.032.008-.119.103-.127.103m-1.853-.792c.016-.008.031-.008.04-.008.007 0 .023.024.023.032a.113.113 0 01-.016.047c0 .016-.008.024-.024.032-.015.008-.031.008-.047.008-.024 0-.048 0-.063-.016-.024-.032.015-.056.04-.071.015-.016.03-.016.047-.024m.253-.198c0 .016-.016.031-.016.063a.09.09 0 00-.04.032c-.007.016.009.024.016.031.016.024-.007.064-.031.064a.11.11 0 01-.087-.04c-.016-.016-.048-.039-.04-.063 0-.016.024-.024.04-.039.023-.017.055-.017.079-.032.016-.016.04-.032.063-.032.008 0 .016 0 .016.016m.095-.34c.04-.009 0 .086 0 .094-.031.04-.087.072-.127.103l-.07.048c-.017.008-.04.024-.056.032-.024.023-.008.031-.048.04-.016.007-.071-.009-.071-.032-.008-.048.198-.151.238-.175.055-.024.079-.095.134-.11m-.444-.025c-.007-.11.23-.221.254-.142.016.04-.04.079-.063.11-.056.088.008.207-.135.12-.04-.032-.056-.056-.056-.088m-.182.254a.185.185 0 01-.142-.119c0-.008-.024-.087-.008-.11.016-.024.08.07.127.087.04.015.063.007.103.007.04 0 .047 0 .063.032a.16.16 0 01.032.064c0 .07-.135.047-.175.04m-.253-.468c-.024.016-.063.047-.087.008-.016-.025.008-.048.024-.064a.633.633 0 01.103-.103c.031-.023.063-.048.103-.07.031-.018.158-.096.142 0-.016.062-.095.094-.135.134-.023.024-.031.046-.063.063-.024.015-.055.008-.087.032m-2.559.19c.008-.016.016-.048.032-.016.024.056.008.095-.056.103-.023 0-.047 0-.07.016-.017.008-.064.032-.08.015-.008-.015.008-.063.016-.07.016-.025.04-.032.063-.032.04 0 .064.007.095-.017m.396-.181c.032 0 .056-.017.08-.032.031-.024.11-.087.15-.04.016.032.008.055-.008.087-.032.08-.095.08-.174.064-.032-.008-.064-.008-.095-.016-.04 0-.103-.016-.048-.055.024-.025.064-.008.095-.008m5.807-1.497c.008-.112.111-.01.167-.017.015 0 .023 0 .031.017.008.015.008.023 0 .023-.055.016-.206.087-.198-.023m2.409.142c.095-.04-.135.27-.19.253-.032-.134.118-.221.19-.253m-1.751-.507c-.008.048-.087.055-.127.094-.04.04-.04.12-.087.159-.048.048-.15.048-.214.032-.11-.032-.198-.15-.11-.245.094-.12.308-.12.443-.12.047 0 .11.017.095.08m-.072-.214c-.016.008-.031.008-.047.008-.008-.008-.016-.04-.032-.04-.008-.024-.016-.047-.008-.063.008-.024.032-.032.04-.055.008-.024.031.023.04.031.015.016.047.032.055.056.008.031-.024.055-.048.063m-2.74-.056c.063-.054.134-.19.19-.142.039.04-.056.15-.08.198-.032.056-.103.166-.19.103-.103-.079.04-.127.08-.159m.475-.34l-.095.103c-.103.032.015-.19.087-.206.079-.016.031.08.008.103m2.51-.245c-.023-.017-.007-.056.009-.073a.114.114 0 01.071-.046c.032-.016.056-.04.087-.057.048-.022.103-.015.159 0 .055.01-.032.103-.072.127-.047.025-.103.017-.158.032-.024.008-.071.032-.095.017m-.008-.682c.032 0 .056 0 .071.008.064-.008-.04.119-.047.135-.024.031-.087.126-.143.126-.023 0 .008-.182.008-.206.016-.119.016-.087.111-.063m-1.553.285c-.015.016-.031.032-.047.064-.016.016-.04.032-.056.055-.015.024-.031.048-.047.056-.024.024-.048.031-.071.046-.024.017-.04.049-.072.057-.023.007-.087.039-.119.024-.015-.017 0-.04.016-.056.048-.04.095-.064.127-.12.056-.103.127-.198.214-.276.024-.032.095-.11.143-.096.007.008.015 0 .023.008.04.024.008.104-.015.127-.04.031-.064.071-.096.111m1.038.016c.04.032.008.08-.024.103-.04.016-.119.032-.15-.008-.024-.032.008-.071.015-.103.032-.095.072 0 .096 0 .015-.008.047-.008.063.008m-.301.65c.04.071-.143.086-.15.054-.008-.062.134-.086.15-.054m-1.933-.54c.024.024-.04.073-.063.088-.032.016-.087.024-.064-.024a.11.11 0 01.056-.047c.016-.008.055-.04.071-.016m-1.98 2.884c-.04.008-.056.055-.103.023-.04-.015-.032-.055-.024-.079s0-.063.016-.087c.047-.072.158 0 .19-.095.016-.032.071-.19.126-.11.04.055-.031.126-.023.181 0 .04.008.048-.024.087-.024.016-.048.056-.08.072-.023.008-.055.008-.078.008m2.099 1.6c-.016-.008-.032 0-.048 0-.087.048 0 .23-.047.3-.048.073-.15.096-.23.064-.08-.023-.055-.086-.024-.15.008-.008 0-.04 0-.048.008-.016.016-.032.024-.04.016-.015.032-.046.016-.071-.008-.007-.024-.015-.032-.032-.016-.015-.008-.04-.008-.063 0-.024-.008-.047.008-.063.016-.008.032 0 .048 0 .04.016.071.031.103.048.023.015.047.015.071.015.024 0 .04 0 .055-.008l.048-.024c.032-.015.08-.008.087.032 0 .017.008.08-.032.071-.015 0-.023-.023-.04-.031M27.883 18.9c-.024-.293.213-.729.332-.737.087-.008.135.08.198.111a.413.413 0 01.008.396c-.047.103-.119.198-.182.285-.024.04-.048.096-.087.111-.111.04-.19-.047-.214-.07-.016-.025-.055-.064-.055-.096m2.067-.919c.071.064.143.12.198.198.048.087.064.175.087.27.024.118-.11.15-.158.237-.008.032-.024.056-.056.064-.047.016-.118-.016-.174-.032-.055-.016-.11-.016-.15-.071-.032-.04-.04-.095-.048-.15-.008-.048 0-.143-.04-.199-.015-.024-.031-.047-.04-.071-.007-.032.009-.056 0-.08-.023-.079.04-.087.033-.15-.008-.04.007-.071.04-.08.055-.007.11.017.158.033.031.015.118.007.15.031m-3.208-.65c.127-.031.237.032.222.159 0 .016.031.04.04.055.047.072-.032.15-.088.19-.063.04-.135.064-.19.111a1.166 1.166 0 01-.222.095c-.04.008-.206.016-.238.008a.202.202 0 01-.158-.166c.056-.301.404-.357.634-.452m3.85-.506c.008-.032-.016-.04-.032-.064-.055-.063-.008-.142.071-.15.04-.008.08.008.12-.008.118-.056.245-.024.372-.008.063.016.126.024.19.04.055.015.206.047.23.055.063.016.142.055.126.135-.016.063-.071.04-.119.063-.079.032-.055.182-.166.174-.063-.008-.119.024-.174.048-.135-.008-.31.008-.428-.064-.032-.015-.048-.04-.071-.063-.032-.024-.127-.047-.12-.158m-1.14-.8c.127-.175.087-.23.087-.246-.016-.056-.19-.206-.245-.23-.095-.04-.206-.024-.31-.055-.205-.064-.34.126-.506.158-.072.016-.111.095-.167.135-.166.11-.3.546-.332.65-.08.237.166.395.261.403.135 0 .285-.015.412-.047a1.26 1.26 0 00.53-.38c.112-.12.175-.262.27-.389m.974-.031c0 .119-.063.538-.102.633-.111.278-.587.92-1.379 1.07-.293.063-.657.19-.919-.024a.853.853 0 00-.261-.182c-.135-.056-.167.008-.27-.071a.448.448 0 01-.063-.254c.016-.063-.032-.119-.055-.174-.032-.064-.127-.182-.111-.301.008-.048-.04-.27.07-.428.033-.048.151-.285.033-.309-.048-.008-.056-.135.031-.206.12-.095.182-.515.61-.642.31-.095.507-.467.84-.483a.774.774 0 01.46.056c.134.063.308.087.396.206.055.087.309.206.396.364.063.127.214.222.245.356.016.064.08.317.08.389m-3.415-.372c.024.007.048.095.048.118a.264.264 0 01-.056.198c-.087.095-.253.088-.3.103a.785.785 0 01-.342-.008c-.023-.007-.221-.087-.245-.134-.024-.04-.064-.214-.048-.254.032-.071.127-.11.206-.126.103-.016.23-.032.317.015.182.111.357.048.42.088m4-.603c-.165.048-.34.222-.514.12-.071-.136-.301-.151-.285-.326.079-.158.253-.126.356-.245.04-.048.658-.159.737-.056l.016.04c-.04.127-.262.174-.174.325.023.087-.072.134-.135.142m-3.755-.182a.363.363 0 01-.032-.206 4.13 4.13 0 00.016-.475c-.016-.127.166-.135.253-.064.048.032.175.198.19.238.04.103.056.222.127.309.072.087.08.309.04.309-.111.008-.087.087-.135.087-.087 0-.388-.008-.46-.198m1.712-.642c-.095-.087-.016-.174-.008-.277-.04-.143 0-.27.071-.396.048-.095.103-.222.206-.285.064-.032.095-.095.175-.056.11.111.07.34.095.491.016.111-.072.222-.127.31-.032.039-.048.102-.08.134-.031.032-.078.056-.118.08-.071.039-.143.055-.214 0m11.336 17.927c.024-.016.048-.016.08-.023l.04.03c0 .024-.024.032-.04.048l-.048.025c-.024.007-.079.023-.103-.009-.016-.023 0-.032.016-.04.016-.007.032-.023.055-.031m.34-.539c.04 0 .128.008.144.04.055.11-.032.238-.12.301-.055.032-.094.055-.158.048a.15.15 0 01-.119-.096c-.031-.087.04-.19.111-.237a.285.285 0 01.143-.056m.547.072c-.064-.008.008-.167.055-.159.056.009.024.166-.055.159m-6.037-.642c-.016.032-.016.055-.008.071v.008c0 .032.008.04-.024.04-.04 0-.087-.055-.103-.087-.015-.04-.007-.04.024-.064.04-.023.08-.063.12-.087.039-.024.078-.024.055.032-.008.032-.048.055-.064.087m2.282-.547h-.024c-.04-.008-.08-.056-.048-.095.024-.04.111-.055.127-.008s-.008.088-.055.095zm4.12-.254c-.04 0-.056-.047-.048-.079.008-.039.055-.055.095-.055h.063c.008 0 .016.009.016.009.016.007-.016.031-.024.04-.024.014-.04.022-.047.046-.016.024-.024.04-.056.04m-3.486-.206c-.016.023-.024.048-.04.071a.467.467 0 01-.316.166c-.072.01-.19.016-.214-.071-.008-.024-.024-.071-.008-.095.016-.023.063-.023.087-.032.048-.016.095-.008.143-.016a.563.563 0 00.198-.063.479.479 0 01.103-.063c.04-.015.079.008.079.047 0 .024-.016.032-.032.056m.198-.167c0 .024 0 .049-.04.056-.031.008-.07-.111-.039-.167.016-.031.048-.007.063.008a.121.121 0 01.016.103m2.488-.15c.016-.031.071-.016.095 0 .024.008.04.016.032.048 0 .024-.032.055-.048.087-.016.015-.008.063-.032.08h-.015c-.032 0-.032-.072-.032-.097v-.055c0-.023-.016-.047 0-.063m-4.531.277c-.12.143-.333.293-.476.19-.134-.118-.063-.221.04-.332.15-.143.483-.286.547-.222.11.11-.064.245-.111.364m2.384-.308s-.008 0 0 0c-.016.007-.024.007-.032 0-.047.015-.095.007-.079-.056a.154.154 0 01.08-.08c.031-.008.07-.015.102-.04a.103.103 0 00.04-.103c.016-.007.04 0 .055.008.024.01.04.017.064.017s.04-.008.063-.008h.032c.024.015-.024.023-.04.032-.023.015-.04.023-.063.04a.506.506 0 00-.119.102c-.032.032-.063.07-.103.088m.246-.342c-.024.017-.08.024-.103-.008-.032-.046.055-.078.087-.078.04 0 .063.07.016.086m2.701-.031c0 .031-.047.048-.079.063-.04.017-.087.032-.127.048-.047.007-.087.023-.134.032-.016.007-.135.032-.08.063.048.023.016.047-.023.063-.032.016-.095.032-.127 0-.04-.03.024-.126.047-.158a.699.699 0 01.12-.088c.047-.023.086-.046.134-.07a.718.718 0 01.127-.088c.055-.023.103.008.126.055.016.025.016.057.016.08m-4.325-.34c-.016.015-.032.03-.032.055-.095.11-.19.221-.293.317l-.166.142c-.032.016-.12.119-.159.071-.031-.04-.008-.103.016-.134.024-.032.055-.056.071-.087.024-.04.024-.088.04-.127.016-.048.032-.103.08-.127a.488.488 0 01.19-.047c.063-.008.102-.056.134-.111l.024-.048c.008-.032.016-.047.04-.063.023-.024.047-.04.07-.064.032-.031.088-.103.143-.07.032.015.032.047.016.07-.016.024-.04.048-.047.064a2.22 2.22 0 00-.127.158m-.34-.237c-.04.047-.056.15-.144.11a.52.52 0 01.183-.277c.04-.023.087-.04.095 0v.023c0 .072-.103.104-.135.144m8.904-11.622c.167-.008.325.047.357.214-.008.118-.024.245-.143.324-.008.008-.04 0-.047 0-.016 0-.024 0-.04-.007a.25.25 0 01-.135-.103c-.016-.016-.04-.04-.055-.064a.31.31 0 01-.064-.079.244.244 0 01-.023-.103c0-.024.016-.048.023-.08a.123.123 0 01.048-.063c.024-.015.055-.04.08-.04M45.5 19.51c.444.5.444 2.107.452 2.385.119 1.386-.372 3.113-.436 3.382-.031.127-.04.515-.222.737-.103.135-.118.317-.158.483-.024.127-.008.412-.135.444-.206.055-.237.27-.269.364-.04.12-.539 1.244-.935 1.711-.142.167-.261.468-.475.555-.056.024-.127 0-.174.024-.064.032-.08.134-.111.198-.04.096-.12.174-.183.253-.142.175-.293.349-.443.515-.182.19-.357.373-.547.555-.071.071-.142.15-.214.222-.023.015-.253.213-.277.142-.008-.016.04-.047.048-.063.015-.024.04-.048.055-.072.016-.015.032-.031.048-.038.031-.032.04-.017.07-.025 0-.08.048-.095.04-.158.04-.04.048-.087.08-.127.04-.04.087-.08.119-.118a.227.227 0 01.07-.08c.08-.056.151-.086.199-.166a.98.98 0 01.11-.143c.04-.039.096-.063.143-.103a.581.581 0 00.12-.159c.07-.11.047-.23.11-.34.063-.111.143-.206.222-.31.024-.039.071-.078.08-.126.007-.071-.072-.063-.12-.04-.023.008-.016.017-.031.04-.032.04-.08.032-.088.087-.031 0-.07.072-.079.095-.016.048-.023.088-.071.12-.048.03-.119.03-.158.078-.032.04-.04.095-.111.088-.056-.008-.048-.048-.032-.088a.42.42 0 01.063-.134c.032-.04.072-.048.111-.08.056-.047.08-.11.111-.166.016-.023.04-.063.064-.08.015-.007.04-.007.055-.023.016-.023.016-.047.04-.071.031-.04.063-.135-.032-.111a.3.3 0 00-.135.103c-.079.087-.142.19-.222.277a2.29 2.29 0 01-.253.23c-.024.016-.048.024-.071.04a.237.237 0 01-.064.031c-.008.009-.024.009-.031.016-.008 0-.016.008-.024.008s-.008.008-.016.008c-.008.009-.024.024-.04.016-.016 0-.031-.007-.023-.032.007-.032.04-.055.063-.08a.173.173 0 00.032-.039c.008-.016 0-.047.015-.063a.065.065 0 01.032-.032c.016-.008.024-.008.04-.016.047-.023.103-.055.126-.103.016-.038.016-.095.024-.134.024-.087.08-.008.095-.056.008-.04-.016-.11.048-.119.024-.008.071.024.087 0 .016-.015-.024-.047-.032-.063-.016-.04-.023-.04 0-.08a.432.432 0 01.159-.197c.055-.032.134-.015.142-.095 0-.024-.008-.048 0-.08.016-.055.143-.079.143-.15 0-.016-.016-.023-.016-.04 0-.008.008-.023.008-.04-.008-.063-.071-.015-.103.009-.055.048-.127.055-.182.11a.313.313 0 01-.095.073c-.032.015-.064.007-.095.023-.056.023-.087.063-.127.11-.032.048-.063.096-.103.143a.185.185 0 01-.056.056c-.023.015-.087.032-.102 0-.008-.016 0-.024-.024-.024s-.04.016-.048.04a.12.12 0 01-.016.048c-.015.015-.04-.009-.047-.017-.008-.015-.024-.04-.04-.04-.016-.007-.031.008-.04.025-.015.023-.031.032-.063.032-.016 0-.055 0-.071-.017-.04-.032.032-.08.04-.11.007-.017.007-.033.007-.048.008-.016.008-.055.032-.064.032-.016.08.032.103.009.048-.056.032-.16.087-.223.04-.04.103-.047.15-.078.128-.095.096-.278.23-.373.04-.032.104-.118.048-.167-.047-.031-.135.024-.19-.015-.04-.024-.071-.024-.103 0a.124.124 0 00-.048.095c0 .032.008.071-.015.103a.293.293 0 00-.04.087c-.016.031-.032.072-.055.095-.072.08-.183.04-.254.112-.032.023-.04.078-.055.118a.694.694 0 01-.127.253c-.056.056-.143.08-.214.119a.661.661 0 00-.127.095c-.024.016-.047.08-.08.08-.03 0-.055-.032-.078-.048-.024-.016-.056-.04-.087-.032-.072.016-.016.072-.008.11v.009c0 .056-.12.12-.167.103-.031-.008-.055-.032-.04-.064.009-.023.04-.04.048-.07.008-.033-.04-.12-.079-.088-.024.016-.04.048-.063.072-.024.015-.095.031-.103-.009-.008-.023.015-.063.023-.079a.52.52 0 00.008-.11c0-.017 0-.04.008-.056s.024-.016.04-.032c.008-.016.008-.024.024-.032.023-.015.04-.008.055 0 .032.016.063.072.103.064 0 0 .024-.056.032-.064a.345.345 0 01.15-.119c.087-.047.182-.102.182-.213 0-.072-.055-.103-.11-.111-.048-.008-.072-.024-.056-.08.016-.055.056-.07.111-.087.032-.008.071-.015.103-.031a.517.517 0 00.143-.12c.023-.047.07-.086.079-.134.016-.031-.008-.087-.04-.103-.016-.008-.047 0-.063 0-.024 0-.048.008-.071.008-.056.008-.111.008-.159-.032-.055-.046 0-.11.024-.158a.16.16 0 00.032-.103c0-.032-.024-.071-.056-.071h-.016c-.031.008-.055.024-.079.031-.055.016-.103.072-.135.111-.031.049-.063.103-.04.159.009.016.009.024.025.04.015.015.031.023.04.039.023.032.007.072-.025.087-.087.032-.166-.055-.245-.078-.04-.009-.071 0-.095.039-.016.024-.04.063-.032.095.008.031.048.055.056.095.007.023 0 .04-.008.055-.016.032-.056.04-.088.04-.04.008-.087 0-.126 0-.04 0-.072 0-.111-.008-.048-.008-.064-.08-.119-.064a.128.128 0 00-.055.056c-.008.016-.024.032-.024.055v.056a.128.128 0 01-.024.071c-.016.032-.032.048-.032.08.008.056.064.087.103.11.024.016.056.04.048.08 0 .023-.016.047-.032.064-.024.015 0 .023 0 .046.008.016 0 .04-.008.056 0 .008-.008.016-.016.024-.008 0-.015 0-.015.007-.04.024-.096.024-.135.033-.048.015-.095.032-.143.039-.04.008-.095.008-.119.031-.031.032-.031.111-.047.151a.21.21 0 01-.135.11c-.04.017-.087.017-.119.04-.04.025-.047.072-.079.103-.063.048-.063-.031-.055-.078a.653.653 0 01.158-.278c.024-.032.048-.048.064-.095.007-.032.007-.08.031-.111.056-.055.111-.095.15-.166.032-.056.048-.103.104-.142.047-.033.079-.08.11-.12.064-.071.12-.142.183-.213.071-.088.142-.175.214-.261.023-.025.047-.057.071-.08.048-.064.11-.111.166-.175a.177.177 0 00.056-.078c.016-.056-.016-.056-.056-.048-.023 0-.055.008-.07-.015-.017-.025-.009-.057-.009-.072 0-.048 0-.126-.055-.126-.024 0-.048.031-.056.046-.008.024-.008.04-.04.032-.031 0-.055-.024-.086-.008-.048.024-.08.071-.111.111l-.12.119c-.055.055-.11.11-.174.166-.04.032-.079.048-.126.071a.274.274 0 00-.095.12c-.016.047-.04.07-.095.07-.032 0-.048-.007-.056-.047 0-.032 0-.086-.047-.086-.056 0-.04.063-.056.094-.016.04-.055.04-.087.048-.063.023-.095.079-.135.126-.063.08-.134.167-.19.254-.024.031-.047.072-.079.087a.803.803 0 00-.135.08.249.249 0 00-.087.11c-.024.048-.04.095-.087.119-.047.024-.087.008-.103-.048-.024-.087 0-.126.056-.19.031-.047.047-.095.087-.134.04-.04.087-.064.118-.111.016-.024.032-.056.048-.08.016-.023.048-.04.071-.055.064-.055.12-.119.175-.182.063-.087.087-.19.158-.27.016-.023.309-.269.222-.324-.064-.04-.119-.008-.174.031-.024.024-.048.049-.072.064-.031.016-.063.016-.095.031-.047.017-.008.04-.024.072-.023.047-.095.016-.118.047-.048.056-.088.119-.135.174-.016.016-.04.048-.063.057-.024.007-.048.007-.072.007-.071.008-.134.135-.158.182-.056.111-.182.127-.285.182a.88.88 0 00-.23.143c-.04.04-.063.112-.127.119-.15.008-.016-.222-.024-.293a.429.429 0 01.04-.23c.008-.015.071-.04.127-.11.063-.088.166-.096.174-.198.008-.175.119-.135.11-.191 0-.04.175-.308.262-.34.072-.025.167-.025.143-.088-.032-.103.135-.166.143-.238.015-.119.221-.11.213-.221-.015-.088.167-.096.175-.175.008-.134.142-.206.237-.237.08-.031.08-.143.064-.214-.024-.111.055-.222.071-.333.024-.103.317-.523.436-.832.198-.507.396-1.022.507-1.553.119-.602.047-1.41.047-1.544.008-.444-.388-1.664-.499-1.933-.024-.072-.11-.127-.127-.198-.142-.73-.744-.92-.752-1.26-.008-.301-.206-.206-.198-.27.024-.435-.214-.285-.262-.34-.158-.206-.515-.903-.887-.887-.08 0-.15-.246-.222-.301-1.457-1.133-2.17-1.632-2.757-1.854-.324-.119-.412-.452-.728-.467-.262-.048-1.53-.8-1.894-.816-.57-.024-.3-.111-.451-.167-.222-.079-.824-.174-.983-.127a.653.653 0 01-.626-.15c-.103-.087-.633-.04-.61-.135.016-.063-.11.024-.174.024-.206.016-1.006.055-1.053-.04-.072-.158-.278.016-.397.032-.126.008-.348-.071-.411-.055-.523.11-.84-.246-1.268.079-.182.127-1.07.206-1.149.356-.103.198-.435.31-.641.325-.373.024-.31.277-.785.27-.483-.008-.554.047-.792.285-.19.182-.515-.04-.665.095-.206.182-.183.079-.27.095-.309.063-.927.237-1.03.348-.324.357-2.384.848-2.416 1.07-.008.08-.237.23-.333.23-.411.008-.594.293-.665.372-.174.206-2.17 1.671-2.321 1.767-.27.166-.642.499-.808.776-.19.317-.737.681-.753.792-.047.349-.3.475-.364.681-.111.333-.491 1.284-.507 1.72-.016.506-.072 1.853.388 3.018.182.443.293.356.325.523.079.435.285.46.451.689.072.103.095.325.15.428.04.07.262.309.373.46.198.284 1.474 1.1 1.505 1.29.087.46 1.252.959 2.1 1.403.348.182 1.267.515 1.497.625.11.056.301.167.444.19.166.025.435-.007.665.199.127.11.642-.024.808.047.095.04.23.064.301-.008.174-.158.214-.927.301-1.133.064-.15-.174-.6-.031-.958.07-.182.15-.42.15-.563.008-.626-.222-.91-.095-1.155.103-.191-.11-.103-.198-.65-.04-.254-.08-.753-.159-.903-.205-.39-.372-.342-.459-.396-.19-.135-.396-.35-.864-.405-.174-.016-.625-.262-.736-.356-.293-.261-.46-.405-.484-.484-.047-.19-.332-.071-.411-.222-.056-.103-.111-.364-.294-.538-.142-.142-.19-.365-.309-.428-.079-.04.024-.127-.087-.15-.103-.024-.11-.104-.071-.19.04-.072.103-.112.135-.183.031-.08.055-.158.11-.222a2.71 2.71 0 01.317-.285c.096-.071.175-.119.302-.087a.197.197 0 01.11.063c.056.048.135.016.19-.016.048-.023.151.032.19.064.056.031.175.016.183.087.008.047.182.063.206.08.008.023.206-.017.238.078.031.072.65.293.831.428.167.119.373.19.563.262.15.063.293.063.404.182.047.047.063.095.135.119.04.007.047-.08.11-.056.072.024.143.024.199.08.047.047.237-.048.396.007.07.025.309.04.388.072.055.015.19-.088.222-.135.023-.04 0-.079-.04-.135-.024-.039-.032-.103-.087-.142-.087-.072-.119-.214-.159-.317-.055-.15-.047-.31-.126-.317-.032-.008-.056-.008-.064-.04-.016-.031-.055-.071-.047-.11.016-.12-.143-.54-.135-.658.016-.167-.095-.071-.047-.238.055-.166.055-.238.063-.372.008-.143-.063-.222-.119-.198-.055.016-.08-.056-.08-.087-.015-.159-.078-.8.199-.927.143-.064.143-.167.261-.167a.796.796 0 00.254-.04c.119-.03.515-.15.69-.205.118-.04-.096-.135.126-.222.071-.024.206-.087.277-.048.024.016.056.016.056.04 0 .087.142.095.23.08a2.55 2.55 0 011.037.039c.34.08.666.222.95.42.104.079.207.166.302.253.071.072.214.111.222.246.015.23.095.08.158.166.103.15-.016.19.071.301.024.04.08.238.103.278.064.103.08.205 0 .308-.142.183.159.302.103.484-.008.04-.11.42-.11.523 0 .15.221.134.26.063.056-.111.262-.127.365-.15.167-.04.206-.096.373-.238.031-.024.055-.095.11-.127.072-.04.096.119.254 0 .055-.04.032-.103.032-.166-.008-.08.095-.246.142-.317.04-.056.12-.04.167-.095.134-.175.031-.222.142-.293.064-.048.46-.618.61-.785.222-.237.491-.49.832-.46.285.025.475.286.515.476.016.064.11.285.016.277-.143-.007-.206.064-.206.206 0 .088.008.563.016.618 0 .072-.024.159.016.222.015.032.087.103.055.174a.492.492 0 01-.087.159c-.214.15-.174.507-.293.72-.032.048-.127.294-.198.35-.246.182-.095.356-.285.507-.175.134-.721.863-.864 1.03-.071.078-.119.15-.214.142-.158-.008-.3.142-.428.23-.134.103-.546.349-.499.562.024.11.19.143.262.206.04.032.15 0 .221 0 .04 0 .072.063.103.063.175.01.214.127.294.15.047.017.087.009.126.025.064.04.626 0 .816.055.214.056.444.112.666.103.237-.008.182.103.245.111.032.008.175-.039.238-.039.396-.04.784.118 1.18.126.254 0 .492.024.73.111.086.032.34.04.34.04s.135-.024.135.024c-.008.087-.08.047-.008.087.023.023.15.087.23.221.039.072.023.19-.064.286-.055.055-.063.15-.071.221-.008.088.047.143.016.222-.024.049-.048.103-.04.159a.463.463 0 01-.111.404c-.016.031.032.08 0 .11-.08.08-.444.246-.555.294a1.24 1.24 0 01-.736.095c-.127-.032-1.894-.221-1.997-.31-.04-.03-.11-.181-.182-.102-.016.024 0 .071-.024.071-.103 0-.515-.016-.61-.047-.134-.031-.134-.175-.245-.135-.032.016.04.119-.056.095a3.76 3.76 0 00-.554.04c-.238.031-.483-.04-.729-.016-.063.008-.103.04-.158.063-.246.111-.579.071-.737.127-.135.047-.373.166-.563.214-.412.095-.554.634-.618.99-.047.206.032.214-.182.428-.032.031 0 .055-.032.08-.055.039-.103.649-.134.807-.032.166-.174.746-.127 1.125.024.15.182.182.277.293.111.127.317.215.507.238.111.008.642.095.959.087.19-.007.348-.04.467.04.175.118.064-.032.206.031.056.024.056.095.12.103.03 0 .181.017.197 0 .08-.071.769-.047.92-.04a20.48 20.48 0 001.48-.07c.238-.032.46-.12.706-.167.134-.024.49-.032.53-.032.064 0 .135.008.198 0l.095-.079a.208.208 0 01.12.024c.047.016.094.031.142.016.04-.008.055-.064.095-.064.024 0 .048.024.071.033.024.015.056.023.08.031a.324.324 0 00.19 0c.015-.008.063-.056.087-.056.04-.008.047.016.04.048-.016.023-.04.047-.048.072-.008.054.063.054.095.039.032-.016.032-.103.087-.143.048-.04.087-.047.127-.008.031.04.063.087.11.087.04 0 .207-.063.262-.142a.193.193 0 01.127-.095c.032 0 .103.023.285.032.032 0 .032.039.071.032.032-.009.088-.064.095-.064.12-.056.262.07.373-.008.055-.04.016-.048.142-.087.143-.04.301-.024.428-.134.056-.04.087-.103.15-.128.056-.032.127-.032.151-.095.024-.055 0-.166.095-.119.064.032.087.111.167.095a.274.274 0 00.166-.095c.04-.054.048-.119.119-.142.04-.015.071 0 .103-.008.031 0 .071-.024.103-.016.047.024.016.08-.016.087-.055.008-.063.088-.087.103-.024.024-.048.017-.08.017a.434.434 0 00-.19.054c-.063.024-.174.112-.134.19.031.08.222.032.253-.023.032-.055-.04-.127.072-.118.07 0 .047.095.087.133.055.048.126.056.198.065.047.007.079-.009.127-.017.04-.008.07.008.07.048 0 .087-.094.087-.15.095a.561.561 0 00-.245.126c-.048.032-.072.088-.12.111-.039.024-.11.024-.134.064-.04.079.072.134.135.134.071 0 .135-.04.182-.087.071-.055.127-.142.206-.19.111-.063.23.08.143.175-.024.015-.024.039-.04.055-.047.055-.158.08-.222.095-.04.008-.237.04-.237.04-.024.023-.111.063-.103.095.031.126.118.095.198.031.031-.024.071-.063.118-.071.024 0 .032.008.048.016.08.04.127-.016.182-.063l.19-.143a.458.458 0 01.254-.08c.071 0 .142.064.08.143-.033.048-.088.032-.128.024-.095-.007-.118.056-.158.119-.032.047-.087.079-.119.119-.032.04-.055.087.008.087.055 0 .103-.032.143-.064.079-.047.19-.142.269-.038.063.086.008.078-.048.157-.055.072-.04.135-.063.207-.024.047-.143.023-.19.047-.063.031-.087.079-.119.126-.016.032-.087.08-.095.103-.008.024.032.056.016.08-.008.015-.032.031-.056.04-.015.007-.031.015-.04.032-.007.007-.007.023-.007.039 0 .079.103.11.174.11a.276.276 0 00.135-.047c.024-.008.071-.032.087 0 .024.055-.071.096-.103.119-.055.047.016.095.055.11.064.024.111.009.143-.047.008-.023.016-.055.032-.08.016-.03.023-.07.063-.07.063-.008.127.023.19.023.08-.008.15-.015.23-.031a.743.743 0 00.38-.238c.016-.023.048-.063.08-.071.087-.015.079.048.087.087.023.11.04.253.142.325.071.047.198.087.285.063a.164.164 0 00.088-.063c.015-.024.023-.056.04-.08.007-.015.039-.023.055-.04.023-.015.04-.039.055-.055.024-.015.032 0 .055 0 .024.01.064 0 .088 0 .07-.007.126-.047.19-.079.079-.031.15-.087.245-.095a.21.21 0 00.095-.024c.016-.015.032-.031.056-.04a.342.342 0 01.095-.014c.024 0 .047.007.071.007.016.008.048.008.056-.016.008-.008 0-.032.008-.04.007-.008.023-.008.04-.015.023-.016.039-.04.055-.056a.154.154 0 01.126-.063c.04 0 .103.023.088.079-.008.024-.048.032-.024.055.024.017.11.008.079.056-.024.032-.024.04-.024.071 0 .04-.031.095-.079.08-.04-.016-.055-.064-.087-.088-.048-.024-.095-.031-.143-.007-.047.023-.103.07-.095.126.008.032.04.056.064.08.023.023.04.078 0 .102-.024.016-.04.025-.056.057-.008.015-.016.046-.032.046-.015 0-.031-.024-.055-.024-.016 0-.024.01-.032.024-.008.024-.016.056-.031.08a.345.345 0 00-.048.055c-.04.032-.08.055-.119.08-.087.055-.174.103-.245.173a.352.352 0 00-.064.088c-.19.142-.443.23-.546.443 0 0-1.307 1.047-1.418 1.133a29.61 29.61 0 01-.325.215s-.491.3-.547.332c-.055.04-.586.515-.95.658-.167.015-.46.3-.73.364-.76.388-1.71.578-2.519.808-.554.031-1.188.221-1.75.253-.555.111-1.062 0-1.062 0-1.6.048-3.85-.024-5.434-.364a3.109 3.109 0 01-1.038-.38c-.31-.19-.626.126-.998.055-.333-.063-.658-.254-.975-.325-.737-.174-.974-.316-1.172-.388-.143-.048-1.125-.404-1.284-.46-.166-.055-.34-.04-.507-.11-.008 0-1.14-.412-1.394-.626-.238-.198-.523-.254-.832-.293-.3-.04-3.478-2.044-4.816-3.573 0 0-.555-.365-.808-.943-.024-.071.158-.206-.04-.317-.04-.024-.388-.285-.42-.309-.325-.214-.325-.65-.626-1.014-.04-.047-.657-.277-.626-.8.032-.61-.586-1.22-.515-1.632.008-.071-.15-.46-.174-.499-.032-.078-.214-.182-.182-.42.047-.293-.15-.523-.055-.808.158-.46-.38-.681-.333-1.45.008-.141.206-.57.024-.823-.127-.175-.048-.452-.048-.476 0-.024.135-.325-.032-.641-.063-.111-.142-.476.08-.555.253-.087.23-.515.293-.634.087-.127.174-.285.15-.436-.055-.356.277-.736.333-.895.032-.071.222-.903.475-1.125.38-.317.246-.625.254-.665.016-.056.293-.309.364-.42.04-.063.206-.586.246-.618.047-.04.27-.34.317-.396.023-.032.324-.547.412-.673.198-.278 1.758-1.941 2.107-2.155.15-.095 1.061-.753 1.267-.927.286-.246 1.807-1.355 2.124-1.474.507-.19.887-.602.926-.641.064-.071.31-.087.341-.174.055-.175 1.6-.682 1.996-.864.19-.087.959-.333 1.244-.5.34-.19 3.985-1.132 4.27-1.203a12.85 12.85 0 013.573 0h.364c.587-.024 1.902.309 2.108.388.214.08.618.483 1.236.404.641-.08.792.23.966.206.832-.103 1.418.42 1.608.317.293-.159.594-.111.808.127.388.427 1.125.475 1.387.499.348.04.68.554 1.6.776.166.04 1.061.697 1.592.864.143.047 1.379 1.045 1.56 1.109.548.198.738.586.856.673.175.127.84.713.951.927.38.38.69.832 1.117 1.164 1.268.99 1.434 1.426 1.537 1.617.206.396.048.776.08.863.07.222.316.222.498.254.206.047.452.372.333.776-.04.119-.222.174-.182.3.174.508-.143.896.142 1.213m68.558 16.407c.46 0 .681.205.689.617v.025c0 .428-.222.658-.68.658h-2.956v-4.16c0-.468.214-.689.626-.689h.213c.42 0 .642.221.642.69v2.859h1.466m-5.735-.776l-.524-1.396-.515 1.396zm-.5-2.782c.682 0 .848.175.927.413l1.79 4.435h-1.552l-.404-.997h-1.553l-.38.997h-1.49l1.72-4.435c.07-.238.269-.413.942-.413zm-4.658.04h1.395v4.16c0 .46-.23.69-.603.69h-.118c-.364 0-.467-.089-.665-.326l-1.768-2.281v2.575h-1.393v-4.16c0-.459.23-.69.609-.69h.143c.356 0 .468.103.673.349l1.727 2.242zm-6.583 3.58c.642 0 1.061-.466 1.061-1.18 0-.705-.42-1.188-1.061-1.188-.65 0-1.07.46-1.07 1.189 0 .713.427 1.18 1.07 1.18m0-3.683c1.481 0 2.535 1.037 2.535 2.503 0 1.465-1.054 2.51-2.535 2.51-1.49 0-2.543-1.037-2.543-2.51 0-1.458 1.061-2.503 2.543-2.503m-4.135.07c.387 0 .649.215.649.635v4.205h-1.49v-4.205c0-.42.255-.634.626-.634h.215m-2.369.032c.467 0 .697.206.69.617v.024c0 .428-.23.658-.69.658h-.784v3.517h-1.49V33.7h-.816c-.443 0-.68-.238-.68-.658v-.024c0-.404.237-.617.68-.617h3.09m-6.282 2.74l-.523-1.395-.515 1.396zm-.492-2.78c.674 0 .84.174.927.412l1.79 4.435H84.47l-.404-.997h-1.553l-.38.997h-1.49l1.72-4.435c.071-.238.27-.413.942-.413zm-4.666.04h1.394v4.159c0 .46-.228.69-.602.69h-.118c-.357 0-.46-.089-.657-.326l-1.768-2.281v2.575h-1.394v-4.16c0-.459.23-.69.61-.69h.143c.348 0 .46.103.673.349l1.72 2.242zm-6.266 2.25c.451 0 .674-.199.666-.555 0-.381-.215-.57-.682-.57h-.61v1.124h.626m2.162-.674c0 .698-.363 1.22-1.037 1.411l1.085 1.347c.048.063-.213.515-.856.515-.467 0-.697-.206-1.006-.635l-.681-.902h-.27v1.496H70.28v-3.984c0-.53.27-.824.76-.824h1.49c1.332 0 2.004.547 2.004 1.576m-7.723 1.403v.57h2.496v1.276h-3.225c-.46 0-.76-.254-.76-.753v-3.24c0-.53.269-.824.76-.824h3.225v1.284h-2.489v.482h1.854v1.205zM63.855 32.4c.469 0 .698.206.682.617v.024c0 .428-.23.658-.69.658h-.775v3.517h-1.498V33.7h-.807c-.444 0-.682-.238-.682-.658v-.024c0-.404.238-.617.682-.617h3.088m-5.941 2.558V32.4h1.394v4.159c0 .46-.23.69-.602.69h-.119c-.356 0-.467-.089-.665-.326l-1.767-2.281v2.575h-1.394v-4.16c0-.459.23-.69.61-.69h.143c.348 0 .46.103.665.349l1.727 2.242zm-4.912-2.59c.389 0 .65.214.65.634v4.205h-1.49v-4.205c0-.42.254-.634.627-.634h.213m50.844-13.603v8.825h-4.793V13.33c0-1.576.793-2.368 2.092-2.368h.483c1.204 0 1.584.357 2.297 1.196l5.919 7.7v-8.777h4.792v14.26c0 1.584-.792 2.376-2.068 2.376h-.404c-1.22 0-1.576-.309-2.265-1.125l-6.045-7.827zM87.226 20.5h3.541l-1.782-4.792zm-2.18 7.09h-5.1l5.893-15.226c.261-.816.943-1.402 3.24-1.402 2.33 0 2.916.587 3.17 1.402l6.147 15.227h-5.332l-1.378-3.415h-5.331zm-5.148-2.241c0 1.45-.76 2.242-2.345 2.25H67.429v-14.26c0-1.6.744-2.369 2.147-2.369h.736c1.45 0 2.218.76 2.218 2.369v9.823h5.023c1.584 0 2.345.713 2.345 2.115v.072m-21.216-6.124c1.553 0 2.37-.769 2.37-2.147 0-1.378-.84-2.139-2.449-2.139h-1.782v4.286h1.861m.048-8.136c4.722 0 7.296 2.036 7.296 5.997 0 3.93-2.48 5.87-7.145 5.87h-1.989v4.642h-5.125V13.925c0-1.838.918-2.836 2.598-2.836h4.365"/></svg>