<svg xmlns="http://www.w3.org/2000/svg" width="229" height="18" viewBox="0 0 229 18"><path fill="#0072ce" d="M219.034 17.698v-7.18a50.055 50.055 0 012.859 3.422c.493.648.975 1.297 1.446 1.945.471.648.898 1.253 1.28 1.813h4.527a89.177 89.177 0 00-1.556-2.365 78.3 78.3 0 00-1.546-2.186 60.785 60.785 0 00-1.623-2.113 85.044 85.044 0 00-1.766-2.125c.206-.256.482-.585.828-.985s.725-.828 1.137-1.285a6242.694 6242.694 0 013.213-3.554l.673-.732a2.784 2.784 0 00-.784-.684 3.31 3.31 0 00-.718-.313 3.077 3.077 0 00-.927-.132c-.53 0-.971.116-1.325.348a6.328 6.328 0 00-.927.733c-.339.336-.714.728-1.126 1.176-.412.449-.832.92-1.259 1.417l-1.27 1.477a66 66 0 00-1.136 1.357V1.608a42.471 42.471 0 00-.63-.216 3.542 3.542 0 00-1.137-.168c-.574 0-1.038.132-1.39.396-.354.264-.53.725-.53 1.381v14.697zm-13.624.422c2.252 0 3.982-.68 5.189-2.04 1.207-1.36 1.81-3.256 1.81-5.688V1.608a42.465 42.465 0 00-.629-.216 3.544 3.544 0 00-1.137-.168c-.574 0-1.038.132-1.39.396-.354.264-.53.724-.53 1.38v6.984c0 .72-.056 1.356-.166 1.908-.11.552-.295 1.016-.552 1.392-.258.376-.597.66-1.016.852-.42.192-.946.288-1.579.288s-1.159-.096-1.578-.288a2.437 2.437 0 01-1.016-.852c-.258-.376-.442-.84-.552-1.392a9.805 9.805 0 01-.166-1.908V1.608a42.465 42.465 0 00-.629-.216 3.544 3.544 0 00-1.137-.168c-.574 0-1.038.132-1.391.396s-.53.724-.53 1.38v7.392c0 2.432.603 4.328 1.81 5.688 1.207 1.36 2.937 2.04 5.19 2.04zm-15.137-.432V.36c-.089-.031-.296-.1-.62-.204A3.544 3.544 0 00188.568 0c-.56 0-1.01.128-1.35.384-.34.256-.51.696-.51 1.32v15.984zm-11.359-2.4c-.486 0-.876-.044-1.17-.132-.294-.088-.515-.196-.662-.324a.884.884 0 01-.287-.432 1.715 1.715 0 01.022-1.008 1.07 1.07 0 01.32-.468c.154-.136.371-.244.651-.324.28-.08.64-.12 1.082-.12.515 0 .902.012 1.16.036.257.024.452.052.584.084v2.568c-.103.032-.316.06-.64.084-.324.024-.677.036-1.06.036zm.018 2.736a35.226 35.226 0 004.632-.3c.31-.04.508-.076.596-.108v-7.248c0-1.008-.158-1.848-.474-2.52a4.19 4.19 0 00-1.302-1.62c-.551-.408-1.202-.696-1.952-.864a10.985 10.985 0 00-2.405-.252c-2.618 0-3.927.696-3.927 2.088 0 .224.037.432.11.624.074.192.155.364.243.516.088.152.177.276.265.372l.176.192c.06-.048.162-.112.31-.192.146-.08.341-.16.584-.24.242-.08.537-.148.882-.204a7.598 7.598 0 011.203-.084c.97 0 1.665.16 2.084.48.42.32.63.76.63 1.32a7.84 7.84 0 00-.784-.072c-.316-.016-.71-.024-1.18-.024-1.883 0-3.258.316-4.126.948-.868.632-1.301 1.684-1.301 3.156 0 .544.088 1.06.264 1.548.177.488.486.916.927 1.284.441.368 1.03.66 1.765.876.735.216 1.662.324 2.78.324zm-15.297-.336V11.16c0-1.664.692-2.496 2.075-2.496.663 0 1.17.204 1.524.612.353.408.53 1.036.53 1.884v6.528h3.555v-7.416c0-.832-.147-1.572-.442-2.22a4.578 4.578 0 00-1.203-1.62 5.243 5.243 0 00-1.789-.984 6.949 6.949 0 00-2.175-.336c-.78 0-1.508.112-2.186.336a5.384 5.384 0 00-1.788.984c-.515.432-.92.972-1.214 1.62-.295.648-.442 1.388-.442 2.22v7.416zm-11.438-3.12a2.32 2.32 0 01-1.037-.228 2.66 2.66 0 01-1.358-1.572 3.706 3.706 0 01-.188-1.2c0-.432.063-.832.188-1.2a2.66 2.66 0 011.358-1.572 2.32 2.32 0 011.037-.228c.368 0 .71.076 1.027.228.317.152.593.36.828.624.236.264.416.58.541.948.125.368.188.768.188 1.2 0 .432-.063.832-.188 1.2a2.72 2.72 0 01-.54.948 2.62 2.62 0 01-.829.624 2.34 2.34 0 01-1.027.228zm0 3.456c.854 0 1.66-.164 2.418-.492a6.228 6.228 0 001.987-1.356 6.308 6.308 0 001.336-2.04c.324-.784.486-1.64.486-2.568 0-.928-.162-1.784-.486-2.568a6.307 6.307 0 00-1.336-2.04 6.228 6.228 0 00-1.987-1.356 6.023 6.023 0 00-2.418-.492 6 6 0 00-2.428.492c-.751.328-1.41.78-1.977 1.356A6.308 6.308 0 00146.457 9a6.661 6.661 0 00-.486 2.568c0 .928.162 1.784.486 2.568a6.304 6.304 0 001.335 2.04 6.262 6.262 0 001.977 1.356 6 6 0 002.428.492zm-8.324-.336V5.808c-.088-.032-.294-.1-.618-.204a3.527 3.527 0 00-1.082-.156c-.56 0-1.008.128-1.347.384-.338.256-.508.696-.508 1.32v10.536zm-1.788-13.392c.56 0 1.03-.204 1.413-.612.383-.408.574-.916.574-1.524s-.191-1.12-.574-1.536A1.845 1.845 0 00142.085 0a1.81 1.81 0 00-1.402.624c-.376.416-.563.928-.563 1.536s.187 1.116.563 1.524c.375.408.842.612 1.402.612zm-7.265 13.718c.486 0 .95-.052 1.392-.156a8.065 8.065 0 001.192-.372c.353-.144.655-.295.905-.455.25-.16.442-.304.574-.432l-1.39-2.638a4.55 4.55 0 01-.73.347 2.997 2.997 0 01-1.126.204 3.07 3.07 0 01-.607-.06 1.185 1.185 0 01-.53-.252 1.488 1.488 0 01-.386-.515c-.103-.216-.155-.508-.155-.876V9.044h3.93c.06-.112.148-.348.266-.708.117-.36.176-.748.176-1.163 0-.576-.14-1.008-.42-1.295-.279-.288-.75-.432-1.412-.432h-2.54V2.208c-.088-.032-.294-.1-.618-.204a3.529 3.529 0 00-1.082-.156c-.56 0-1.008.128-1.347.384-.338.256-.508.695-.508 1.319v10.098c0 1.327.39 2.386 1.17 3.178.78.791 1.863 1.187 3.246 1.187zm-12.1-2.726c-.485 0-.875-.044-1.17-.132-.294-.088-.515-.196-.662-.324a.884.884 0 01-.287-.432 1.715 1.715 0 01.022-1.008c.059-.176.166-.332.32-.468.155-.136.372-.244.652-.324.28-.08.64-.12 1.081-.12.516 0 .902.012 1.16.036.257.024.452.052.585.084v2.568c-.103.032-.317.06-.64.084-.324.024-.678.036-1.06.036zm.018 2.736a35.226 35.226 0 004.633-.3c.309-.04.507-.076.595-.108v-7.248c0-1.008-.158-1.848-.474-2.52a4.19 4.19 0 00-1.301-1.62c-.552-.408-1.203-.696-1.953-.864a10.985 10.985 0 00-2.405-.252c-2.618 0-3.927.696-3.927 2.088 0 .224.037.432.11.624.074.192.155.364.243.516.089.152.177.276.265.372l.177.192c.058-.048.161-.112.309-.192.147-.08.341-.16.584-.24.243-.08.537-.148.883-.204a7.598 7.598 0 011.202-.084c.97 0 1.666.16 2.085.48.419.32.629.76.629 1.32a7.84 7.84 0 00-.784-.072c-.316-.016-.71-.024-1.18-.024-1.883 0-3.258.316-4.125.948-.868.632-1.302 1.684-1.302 3.156 0 .544.088 1.06.265 1.548.176.488.485.916.926 1.284.441.368 1.03.66 1.765.876.736.216 1.662.324 2.78.324zm-15.297-.336V11.16c0-1.664.692-2.496 2.076-2.496.662 0 1.17.204 1.523.612.354.408.53 1.036.53 1.884v6.528h3.555v-7.416c0-.832-.147-1.572-.441-2.22a4.578 4.578 0 00-1.204-1.62 5.243 5.243 0 00-1.788-.984 6.949 6.949 0 00-2.175-.336 6.92 6.92 0 00-2.186.336 5.384 5.384 0 00-1.789.984c-.515.432-.92.972-1.214 1.62-.294.648-.442 1.388-.442 2.22v7.416zm-9.34 0v-6.84c0-.816.195-1.4.586-1.752.39-.352.864-.528 1.424-.528.427 0 .817.056 1.17.168.353.112.655.232.905.36a3.871 3.871 0 00.475-.648c.096-.16.177-.344.243-.552.066-.208.1-.432.1-.672 0-.24-.038-.448-.111-.624a2 2 0 00-.31-.504c-.22-.24-.577-.464-1.07-.672-.493-.208-1.181-.312-2.065-.312a5.86 5.86 0 00-1.987.324 4.217 4.217 0 00-1.545.948A4.38 4.38 0 0094.91 7.92c-.243.608-.364 1.304-.364 2.088v7.68zM85.317 10.68a3.54 3.54 0 01.177-.948c.103-.312.254-.588.452-.828.2-.24.446-.436.74-.588.294-.152.64-.228 1.038-.228.56 0 .979.124 1.258.372.28.248.42.54.42.876 0 .16-.03.32-.088.48-.06.16-.221.304-.486.432s-.67.232-1.215.312c-.544.08-1.31.12-2.296.12zm2.319 7.344a10.077 10.077 0 003.268-.528 7.579 7.579 0 001.026-.432c.272-.144.467-.256.585-.336L91.28 14.04c-.03.032-.125.088-.287.168a4.55 4.55 0 01-.619.24c-.25.08-.544.156-.883.228a5.189 5.189 0 01-1.082.108c-.5 0-.927-.048-1.28-.144a2.784 2.784 0 01-.872-.384 2.057 2.057 0 01-.53-.516 1.37 1.37 0 01-.232-.564h.773c1.31 0 2.388-.088 3.234-.264.847-.176 1.516-.428 2.01-.756.493-.328.835-.728 1.026-1.2a4.215 4.215 0 00.287-1.596c0-.544-.114-1.072-.342-1.584a4.14 4.14 0 00-.994-1.368c-.434-.4-.967-.716-1.6-.948-.633-.232-1.347-.348-2.142-.348-.854 0-1.649.156-2.385.468a5.816 5.816 0 00-1.92 1.308 5.97 5.97 0 00-1.281 2.04c-.31.8-.464 1.68-.464 2.64 0 1.024.155 1.936.464 2.736.309.8.732 1.476 1.27 2.028a5.398 5.398 0 001.887 1.26 6.194 6.194 0 002.319.432zm-10.869-.01c.486 0 .949-.052 1.39-.156a8.05 8.05 0 001.19-.372 5.63 5.63 0 00.905-.455c.25-.16.441-.304.574-.432l-1.39-2.638c-.147.095-.39.211-.728.347a2.991 2.991 0 01-1.125.204 3.06 3.06 0 01-.606-.06 1.183 1.183 0 01-.53-.252 1.487 1.487 0 01-.385-.515c-.103-.216-.155-.508-.155-.876V9.044h3.926c.059-.112.147-.348.265-.708.117-.36.176-.748.176-1.163 0-.576-.14-1.008-.419-1.295-.28-.288-.75-.432-1.411-.432h-2.537V2.208c-.088-.032-.294-.1-.617-.204a3.521 3.521 0 00-1.081-.156c-.559 0-1.007.128-1.346.384-.338.256-.507.695-.507 1.319v10.098c0 1.327.39 2.386 1.17 3.178.778.791 1.86 1.187 3.241 1.187zm-14.523-.326V11.16c0-1.664.691-2.496 2.075-2.496.662 0 1.17.204 1.524.612.353.408.53 1.036.53 1.884v6.528h3.554v-7.416c0-.832-.147-1.572-.441-2.22a4.578 4.578 0 00-1.204-1.62 5.243 5.243 0 00-1.788-.984 6.949 6.949 0 00-2.175-.336 6.92 6.92 0 00-2.186.336 5.384 5.384 0 00-1.788.984c-.516.432-.92.972-1.215 1.62-.294.648-.441 1.388-.441 2.22v7.416zm-5.984.01V1.608a42.471 42.471 0 00-.63-.216 3.542 3.542 0 00-1.137-.168c-.574 0-1.037.132-1.39.396-.354.264-.53.725-.53 1.381v14.697zm-19.563-.01V11.16c0-1.664.692-2.496 2.075-2.496.663 0 1.17.204 1.524.612.353.408.53 1.036.53 1.884v6.528h3.555v-7.416c0-.832-.147-1.572-.442-2.22a4.578 4.578 0 00-1.203-1.62 5.243 5.243 0 00-1.789-.984 6.949 6.949 0 00-2.175-.336c-.78 0-1.508.112-2.185.336a5.384 5.384 0 00-1.789.984c-.515.432-.92.972-1.214 1.62-.295.648-.442 1.388-.442 2.22v7.416zm-10.908-2.4c-.485 0-.875-.044-1.17-.132-.294-.088-.515-.196-.662-.324a.884.884 0 01-.287-.432 1.715 1.715 0 01.022-1.008c.059-.176.165-.332.32-.468s.372-.244.651-.324c.28-.08.64-.12 1.082-.12.515 0 .902.012 1.16.036.257.024.452.052.585.084v2.568c-.103.032-.317.06-.64.084-.325.024-.678.036-1.06.036zm.018 2.736a35.226 35.226 0 004.633-.3c.308-.04.507-.076.595-.108v-7.248c0-1.008-.158-1.848-.474-2.52a4.19 4.19 0 00-1.302-1.62c-.551-.408-1.202-.696-1.952-.864a10.985 10.985 0 00-2.405-.252c-2.618 0-3.927.696-3.927 2.088 0 .224.037.432.11.624.074.192.155.364.243.516.088.152.177.276.265.372l.176.192c.06-.048.162-.112.31-.192.146-.08.341-.16.584-.24.243-.08.537-.148.882-.204a7.598 7.598 0 011.203-.084c.97 0 1.665.16 2.085.48.419.32.628.76.628 1.32a7.84 7.84 0 00-.783-.072c-.316-.016-.71-.024-1.18-.024-1.883 0-3.258.316-4.126.948-.867.632-1.301 1.684-1.301 3.156 0 .544.088 1.06.264 1.548.177.488.486.916.927 1.284.441.368 1.03.66 1.765.876.735.216 1.662.324 2.78.324zm-7.714-.336V.36a29.55 29.55 0 00-.62-.204A3.544 3.544 0 0016.388 0c-.56 0-1.01.128-1.35.384-.34.256-.51.696-.51 1.32v15.984zM5.41 9.096c-.59 0-1.012-.02-1.27-.06l-.541-.084v-4.44c.074-.016.272-.036.596-.06a17.71 17.71 0 011.259-.036c.706 0 1.27.076 1.689.228.42.152.74.344.96.576.221.232.365.484.43.756.067.272.1.536.1.792 0 .272-.04.548-.121.828-.081.28-.24.532-.475.756-.235.224-.563.404-.982.54-.42.136-.968.204-1.645.204zm-1.811 8.602v-5.355c.044 0 .136.012.276.036.14.024.313.044.519.06.206.016.434.032.684.048.25.016.508.024.773.024 1.148 0 2.138-.14 2.97-.42.832-.28 1.512-.673 2.042-1.177a4.58 4.58 0 001.17-1.813c.25-.705.376-1.481.376-2.33a6.86 6.86 0 00-.342-2.149 4.615 4.615 0 00-1.148-1.849c-.538-.536-1.248-.969-2.131-1.297C7.905 1.148 6.8.984 5.476.984c-.618 0-1.145.008-1.579.024a26.61 26.61 0 00-1.104.06 9.697 9.697 0 00-.75.084 9.848 9.848 0 00-.52.096 2.105 2.105 0 00-.563.18 1.434 1.434 0 00-.485.385c-.14.168-.254.38-.343.636-.088.256-.132.56-.132.912v14.337z"/></svg>