<svg xmlns="http://www.w3.org/2000/svg" width="249" height="18" viewBox="0 0 249 18"><path fill="#0072ce" d="M238.08 17.698v-7.18a51.612 51.612 0 013.108 3.422c.536.648 1.06 1.297 1.572 1.945.512.648.976 1.253 1.392 1.813h4.92a88.886 88.886 0 00-1.692-2.365 78.674 78.674 0 00-1.68-2.186 61.663 61.663 0 00-1.764-2.113 87.1 87.1 0 00-1.92-2.125c.224-.256.524-.585.9-.985s.788-.828 1.236-1.285a6460.132 6460.132 0 013.493-3.554l.731-.732a3.019 3.019 0 00-.852-.684 3.766 3.766 0 00-.78-.313 3.616 3.616 0 00-1.008-.132c-.576 0-1.056.116-1.44.348-.384.232-.72.476-1.008.733a37.78 37.78 0 00-1.224 1.176c-.448.449-.904.92-1.368 1.417l-1.38 1.477c-.456.488-.868.94-1.236 1.357V1.608a48.958 48.958 0 00-.684-.216 4.16 4.16 0 00-1.236-.168c-.624 0-1.128.132-1.512.396-.384.264-.576.725-.576 1.381v14.697zm-14.808.422c2.448 0 4.328-.68 5.64-2.04 1.312-1.36 1.968-3.256 1.968-5.688V1.608a48.953 48.953 0 00-.684-.216 4.162 4.162 0 00-1.236-.168c-.624 0-1.128.132-1.512.396-.384.264-.576.724-.576 1.38v6.984c0 .72-.06 1.356-.18 1.908-.12.552-.32 1.016-.6 1.392-.28.376-.648.66-1.104.852-.456.192-1.028.288-1.716.288s-1.26-.096-1.716-.288a2.607 2.607 0 01-1.104-.852c-.28-.376-.48-.84-.6-1.392a9.044 9.044 0 01-.18-1.908V1.608a48.953 48.953 0 00-.684-.216 4.162 4.162 0 00-1.236-.168c-.624 0-1.128.132-1.512.396-.384.264-.576.724-.576 1.38v7.392c0 2.432.656 4.328 1.968 5.688 1.312 1.36 3.192 2.04 5.64 2.04zm-16.454-.432V.36c-.096-.031-.32-.1-.674-.204A4.164 4.164 0 00204.965 0c-.61 0-1.099.128-1.468.384s-.553.696-.553 1.32v15.984zm-12.346-2.4c-.528 0-.952-.044-1.272-.132-.32-.088-.56-.196-.72-.324a.882.882 0 01-.312-.432 1.588 1.588 0 01-.072-.456c0-.192.032-.376.096-.552.064-.176.18-.332.348-.468.168-.136.404-.244.708-.324.304-.08.696-.12 1.176-.12.56 0 .98.012 1.26.036.28.024.492.052.636.084v2.568c-.112.032-.344.06-.696.084-.352.024-.736.036-1.152.036zm.019 2.736a41.61 41.61 0 005.036-.3c.335-.04.551-.076.647-.108v-7.248c0-1.008-.172-1.848-.516-2.52a4.278 4.278 0 00-1.414-1.62c-.6-.408-1.307-.696-2.123-.864a12.94 12.94 0 00-2.613-.252c-2.846 0-4.269.696-4.269 2.088 0 .224.04.432.12.624.08.192.168.364.264.516.096.152.192.276.288.372l.191.192c.064-.048.176-.112.336-.192.16-.08.372-.16.636-.24.263-.08.583-.148.959-.204a8.964 8.964 0 011.307-.084c1.055 0 1.81.16 2.266.48.455.32.683.76.683 1.32a9.243 9.243 0 00-.851-.072 28.407 28.407 0 00-1.283-.024c-2.046 0-3.541.316-4.484.948-.943.632-1.415 1.684-1.415 3.156 0 .544.096 1.06.288 1.548.192.488.527.916 1.007 1.284.48.368 1.119.66 1.918.876.8.216 1.807.324 3.022.324zm-16.627-.336V11.16c0-1.664.752-2.496 2.256-2.496.72 0 1.272.204 1.656.612.384.408.576 1.036.576 1.884v6.528h3.864v-7.416c0-.832-.16-1.572-.48-2.22a4.63 4.63 0 00-1.308-1.62 5.859 5.859 0 00-1.944-.984 8.158 8.158 0 00-2.364-.336c-.848 0-1.64.112-2.376.336a6.017 6.017 0 00-1.944.984c-.56.432-1 .972-1.32 1.62-.32.648-.48 1.388-.48 2.22v7.416zm-12.432-3.12c-.416 0-.792-.076-1.128-.228a2.879 2.879 0 01-.888-.624 2.675 2.675 0 01-.588-.948 3.436 3.436 0 01-.204-1.2c0-.432.068-.832.204-1.2.136-.368.332-.684.588-.948.256-.264.552-.472.888-.624a2.706 2.706 0 011.128-.228c.4 0 .772.076 1.116.228.344.152.644.36.9.624s.452.58.588.948c.136.368.204.768.204 1.2 0 .432-.068.832-.204 1.2a2.674 2.674 0 01-.588.948 2.838 2.838 0 01-.9.624 2.73 2.73 0 01-1.116.228zm0 3.456a7.04 7.04 0 002.628-.492 6.821 6.821 0 002.16-1.356 6.197 6.197 0 001.98-4.608 6.197 6.197 0 00-1.98-4.608 6.821 6.821 0 00-2.16-1.356 7.04 7.04 0 00-2.628-.492c-.944 0-1.824.164-2.64.492a6.855 6.855 0 00-2.148 1.356 6.197 6.197 0 00-1.98 4.608 6.197 6.197 0 001.98 4.608 6.855 6.855 0 002.148 1.356 7.012 7.012 0 002.64.492zm-9.048-.336V5.808c-.096-.032-.32-.1-.672-.204a4.143 4.143 0 00-1.176-.156c-.608 0-1.096.128-1.464.384-.368.256-.552.696-.552 1.32v10.536zM154.44 4.296c.608 0 1.12-.204 1.536-.612.416-.408.624-.916.624-1.524s-.208-1.12-.624-1.536C155.56.208 155.048 0 154.44 0s-1.116.208-1.524.624c-.408.416-.612.928-.612 1.536s.204 1.116.612 1.524c.408.408.916.612 1.524.612zm-7.896 13.718c.528 0 1.032-.052 1.512-.156a9.33 9.33 0 001.296-.372 6.35 6.35 0 00.984-.455c.272-.16.48-.304.624-.432l-1.512-2.638c-.16.095-.424.211-.792.347a3.51 3.51 0 01-1.224.204 3.62 3.62 0 01-.66-.06 1.338 1.338 0 01-.576-.252 1.506 1.506 0 01-.42-.515c-.112-.216-.168-.508-.168-.876V9.044h4.272c.064-.112.16-.348.288-.708.128-.36.192-.748.192-1.163 0-.576-.152-1.008-.456-1.295-.304-.288-.816-.432-1.536-.432h-2.76V2.208c-.096-.032-.32-.1-.672-.204a4.145 4.145 0 00-1.176-.156c-.608 0-1.096.128-1.464.384-.368.256-.552.695-.552 1.319v10.098c0 1.327.424 2.386 1.272 3.178.848.791 2.024 1.187 3.528 1.187zm-13.152-2.726c-.528 0-.952-.044-1.272-.132-.32-.088-.56-.196-.72-.324a.882.882 0 01-.312-.432 1.588 1.588 0 01-.072-.456c0-.192.032-.376.096-.552.064-.176.18-.332.348-.468.168-.136.404-.244.708-.324.304-.08.696-.12 1.176-.12.56 0 .98.012 1.26.036.28.024.492.052.636.084v2.568c-.112.032-.344.06-.696.084-.352.024-.736.036-1.152.036zm.019 2.736a41.61 41.61 0 005.036-.3c.335-.04.551-.076.647-.108v-7.248c0-1.008-.172-1.848-.516-2.52a4.278 4.278 0 00-1.414-1.62c-.6-.408-1.307-.696-2.123-.864a12.94 12.94 0 00-2.613-.252c-2.846 0-4.269.696-4.269 2.088 0 .224.04.432.12.624.08.192.168.364.264.516.096.152.192.276.288.372l.191.192c.064-.048.176-.112.336-.192.16-.08.372-.16.636-.24.263-.08.583-.148.959-.204a8.964 8.964 0 011.307-.084c1.055 0 1.81.16 2.266.48.455.32.683.76.683 1.32a9.243 9.243 0 00-.851-.072 28.407 28.407 0 00-1.283-.024c-2.046 0-3.541.316-4.484.948-.943.632-1.415 1.684-1.415 3.156 0 .544.096 1.06.288 1.548.192.488.527.916 1.007 1.284.48.368 1.119.66 1.918.876.8.216 1.807.324 3.022.324zm-16.627-.336V11.16c0-1.664.752-2.496 2.256-2.496.72 0 1.272.204 1.656.612.384.408.576 1.036.576 1.884v6.528h3.864v-7.416c0-.832-.16-1.572-.48-2.22a4.63 4.63 0 00-1.308-1.62 5.859 5.859 0 00-1.944-.984 8.158 8.158 0 00-2.364-.336c-.848 0-1.64.112-2.376.336a6.017 6.017 0 00-1.944.984c-.56.432-1 .972-1.32 1.62-.32.648-.48 1.388-.48 2.22v7.416zm-10.152 0v-6.84c0-.816.212-1.4.636-1.752.424-.352.94-.528 1.548-.528.464 0 .888.056 1.272.168.384.112.712.232.984.36.048-.048.12-.128.216-.24.096-.112.196-.248.3-.408.104-.16.192-.344.264-.552a2.04 2.04 0 00.108-.672c0-.24-.04-.448-.12-.624a1.979 1.979 0 00-.336-.504c-.24-.24-.628-.464-1.164-.672-.536-.208-1.284-.312-2.244-.312-.784 0-1.504.108-2.16.324a4.666 4.666 0 00-1.68.948 4.367 4.367 0 00-1.092 1.536c-.264.608-.396 1.304-.396 2.088v7.68zM92.736 10.68c.016-.32.08-.636.192-.948.112-.312.276-.588.492-.828a2.52 2.52 0 01.804-.588c.32-.152.696-.228 1.128-.228.608 0 1.064.124 1.368.372.304.248.456.54.456.876 0 .16-.032.32-.096.48-.064.16-.24.304-.528.432-.288.128-.728.232-1.32.312-.592.08-1.424.12-2.496.12zm2.52 7.344a11.731 11.731 0 003.552-.528c.448-.144.82-.288 1.116-.432.296-.144.508-.256.636-.336l-1.344-2.688c-.032.032-.136.088-.312.168-.176.08-.4.16-.672.24-.272.08-.592.156-.96.228a6.12 6.12 0 01-1.176.108c-.544 0-1.008-.048-1.392-.144a3.163 3.163 0 01-.948-.384 2.16 2.16 0 01-.576-.516 1.311 1.311 0 01-.252-.564h.84c1.424 0 2.596-.088 3.516-.264.92-.176 1.648-.428 2.184-.756.536-.328.908-.728 1.116-1.2a3.918 3.918 0 00.312-1.596c0-.544-.124-1.072-.372-1.584a4.174 4.174 0 00-1.08-1.368c-.472-.4-1.052-.716-1.74-.948-.688-.232-1.464-.348-2.328-.348-.928 0-1.792.156-2.592.468a6.37 6.37 0 00-2.088 1.308 5.927 5.927 0 00-1.392 2.04c-.336.8-.504 1.68-.504 2.64 0 1.024.168 1.936.504 2.736.336.8.796 1.476 1.38 2.028a5.925 5.925 0 002.052 1.26 7.251 7.251 0 002.52.432zm-11.813-.01c.527 0 1.03-.052 1.51-.156a9.31 9.31 0 001.295-.372 6.34 6.34 0 00.983-.455c.271-.16.48-.304.623-.432l-1.51-2.638c-.16.095-.424.211-.791.347a3.503 3.503 0 01-1.223.204c-.224 0-.444-.02-.66-.06a1.336 1.336 0 01-.575-.252 1.506 1.506 0 01-.42-.515c-.111-.216-.167-.508-.167-.876V9.044h4.267c.064-.112.16-.348.288-.708a3.45 3.45 0 00.192-1.163c0-.576-.152-1.008-.456-1.295-.304-.288-.815-.432-1.534-.432h-2.757V2.208c-.096-.032-.32-.1-.671-.204a4.137 4.137 0 00-1.175-.156c-.608 0-1.095.128-1.463.384-.367.256-.551.695-.551 1.319v10.098c0 1.327.424 2.386 1.27 3.178.848.791 2.022 1.187 3.525 1.187zm-15.787-.326V11.16c0-1.664.752-2.496 2.256-2.496.72 0 1.272.204 1.656.612.384.408.576 1.036.576 1.884v6.528h3.864v-7.416c0-.832-.16-1.572-.48-2.22a4.63 4.63 0 00-1.308-1.62 5.859 5.859 0 00-1.944-.984 8.158 8.158 0 00-2.364-.336c-.848 0-1.64.112-2.376.336a6.017 6.017 0 00-1.944.984c-.56.432-1 .972-1.32 1.62-.32.648-.48 1.388-.48 2.22v7.416zm-6.504.01V1.608a48.958 48.958 0 00-.684-.216 4.16 4.16 0 00-1.236-.168c-.624 0-1.128.132-1.512.396-.384.264-.576.725-.576 1.381v14.697zm-21.264-.01V11.16c0-1.664.752-2.496 2.256-2.496.72 0 1.272.204 1.656.612.384.408.576 1.036.576 1.884v6.528h3.864v-7.416c0-.832-.16-1.572-.48-2.22a4.63 4.63 0 00-1.308-1.62 5.859 5.859 0 00-1.944-.984 8.158 8.158 0 00-2.364-.336c-.848 0-1.64.112-2.376.336a6.017 6.017 0 00-1.944.984c-.56.432-1 .972-1.32 1.62-.32.648-.48 1.388-.48 2.22v7.416zm-11.856-2.4c-.528 0-.952-.044-1.272-.132-.32-.088-.56-.196-.72-.324a.882.882 0 01-.312-.432 1.588 1.588 0 01-.072-.456c0-.192.032-.376.096-.552.064-.176.18-.332.348-.468.168-.136.404-.244.708-.324.304-.08.696-.12 1.176-.12.56 0 .98.012 1.26.036.28.024.492.052.636.084v2.568c-.112.032-.344.06-.696.084-.352.024-.736.036-1.152.036zm.019 2.736a41.61 41.61 0 005.036-.3c.335-.04.551-.076.647-.108v-7.248c0-1.008-.172-1.848-.516-2.52a4.278 4.278 0 00-1.414-1.62c-.6-.408-1.307-.696-2.123-.864a12.94 12.94 0 00-2.613-.252c-2.846 0-4.269.696-4.269 2.088 0 .224.04.432.12.624.08.192.168.364.264.516.096.152.192.276.288.372l.191.192c.064-.048.176-.112.336-.192.16-.08.372-.16.636-.24.263-.08.583-.148.959-.204a8.964 8.964 0 011.307-.084c1.055 0 1.81.16 2.266.48.455.32.683.76.683 1.32a9.243 9.243 0 00-.851-.072 28.407 28.407 0 00-1.283-.024c-2.046 0-3.541.316-4.484.948-.943.632-1.415 1.684-1.415 3.156 0 .544.096 1.06.288 1.548.192.488.527.916 1.007 1.284.48.368 1.119.66 1.918.876.8.216 1.807.324 3.022.324zm-8.385-.336V.36c-.096-.031-.32-.1-.674-.204A4.164 4.164 0 0017.813 0c-.61 0-1.099.128-1.468.384s-.553.696-.553 1.32v15.984zM5.88 9.096c-.64 0-1.1-.02-1.38-.06l-.588-.084v-4.44c.08-.016.296-.036.648-.06a20.92 20.92 0 011.368-.036c.768 0 1.38.076 1.836.228.456.152.804.344 1.044.576.24.232.396.484.468.756.072.272.108.536.108.792 0 .272-.044.548-.132.828-.088.28-.26.532-.516.756-.256.224-.612.404-1.068.54-.456.136-1.052.204-1.788.204zm-1.968 8.602v-5.355c.048 0 .148.012.3.036.152.024.34.044.564.06.224.016.472.032.744.048s.552.024.84.024c1.248 0 2.324-.14 3.228-.42.904-.28 1.644-.673 2.22-1.177.576-.504 1-1.109 1.272-1.813.272-.705.408-1.481.408-2.33a6.36 6.36 0 00-.372-2.149 4.575 4.575 0 00-1.248-1.849c-.584-.536-1.356-.969-2.316-1.297-.96-.328-2.16-.492-3.6-.492-.672 0-1.244.008-1.716.024s-.872.036-1.2.06c-.328.024-.6.052-.816.084-.216.032-.404.064-.564.096a2.432 2.432 0 00-.612.18c-.2.088-.376.216-.528.385-.152.168-.276.38-.372.636A2.6 2.6 0 000 3.36v14.337z"/></svg>