<svg xmlns="http://www.w3.org/2000/svg" width="84" height="43" viewBox="0 0 84 43"><path fill="none" stroke="#000" stroke-miterlimit="20" d="M13.658 8.123c-2.081 8.88-5.1 17.593-6.245 26.643-.23 1.826 1.315 6.639 2.238 5.047L14.44 34.4c1.352-2.33 1.088-9.711 2.757-7.597C19.19 29.33 12.803 36.028 16 36.38l.676 4.63c3.81.42 6.177-10.97 6.921-11.395 1.758-1.004-1.094 4.055-.676 6.036.132.623 1.66-.963 1.873-.364l2.238-3.8c.691 1.934-2.995 7.345-1.457 5.985l2.186-.416c1.646-1.455 1.93-5.421 4.111-5.151 1.98.245.19 4.208 1.353 5.828 1.413 1.968 4.572-1.72 4.891-2.134 1.337-1.733 2.71-3.484 3.643-5.464 3.804-8.067 7.318-18.823 5.881-27.944-.078-.496-.759-1.508-1.041-1.092-3.523 5.198-16.513 42.676-2.446 39.08 5.668-1.45 10.439-12.24 9.783-17.59-.064-.523-.753-1.548-1.092-1.144-2.248 2.677-3.926 5.812-5.465 8.95-.975 1.992-1.787 14.225 4.163 8.534 2.486-2.377 3.42-5.972 5.31-8.846.085-.13-4.976 7.473-3.54 9.055.835.919 2.683-1.188 3.695-.469l4.58-5.411c2.18 1.548-1.218 5.297-.99 7.961.052.596 1.307.955 1.718.52 2.48-2.627 2.63-8.29 6.192-8.898 2.566-.438-2.3 8.502.209 7.805l2.81 1.822c1.412-.392 2.168-2.065 2.81-3.383 1.239-2.541 1.703-7.582.937-10.25-.5-1.74-4.394-5.233-2.654-4.736 24.38 6.966.156 9.054-4.164 8.586M.75 10.565c29.61-3.748 18.906-4.772 32.108-3.122"/></svg>