<svg xmlns="http://www.w3.org/2000/svg" width="17" height="14" viewBox="0 0 17 14"><path fill="#fff" d="M16.208 1.58a6.503 6.503 0 01-1.648 1.717v.412c0 2.403-.864 4.584-2.593 6.541-1.728 1.958-4.023 2.936-6.885 2.936-1.831 0-3.525-.503-5.082-1.51.366.045.63.068.79.068 1.534 0 2.907-.48 4.12-1.442a3.343 3.343 0 01-1.922-.67 3.146 3.146 0 01-1.168-1.63c.275.045.48.068.618.068.229 0 .527-.046.893-.138a3.357 3.357 0 01-1.906-1.15A3.165 3.165 0 01.652 4.67v-.034c.504.275 1.008.412 1.511.412C1.18 4.407.687 3.48.687 2.266c0-.572.149-1.121.446-1.648 1.763 2.175 4.04 3.331 6.834 3.468-.046-.16-.069-.412-.069-.755 0-.939.32-1.728.962-2.37C9.5.322 10.29 0 11.23 0c.938 0 1.739.355 2.403 1.065.687-.115 1.396-.39 2.129-.825-.229.802-.721 1.42-1.477 1.855a5.668 5.668 0 001.923-.515z"/></svg>